<svg xmlns="http://www.w3.org/2000/svg" width="100" height="100" viewBox="0 0 100 100">
  <!-- Water wave patterns -->
  <path d="M20,40 Q25,35 30,40 Q35,45 40,40 Q45,35 50,40" stroke="#75c5ff" stroke-width="2" fill="none"/>
  <path d="M50,40 Q55,35 60,40 Q65,45 70,40 Q75,35 80,40" stroke="#75c5ff" stroke-width="2" fill="none"/>
  
  <path d="M25,50 Q30,45 35,50 Q40,55 45,50 Q50,45 55,50" stroke="#75c5ff" stroke-width="2" fill="none"/>
  <path d="M55,50 Q60,45 65,50 Q70,55 75,50" stroke="#75c5ff" stroke-width="2" fill="none"/>
  
  <path d="M20,60 Q25,55 30,60 Q35,65 40,60 Q45,55 50,60" stroke="#75c5ff" stroke-width="2" fill="none"/>
  <path d="M50,60 Q55,55 60,60 Q65,65 70,60 Q75,55 80,60" stroke="#75c5ff" stroke-width="2" fill="none"/>
</svg>
